# Apple ModelIO OBJ File: island
mtllib island.mtl
g KitchIsland
v 3.63977 3.3259 1.23961
v 3.63977 3.3259 -1.23961
v 2.46478 3.3259 -1.23961
v 2.46478 3.3259 1.23961
v 3.63977 3.3259 2.17705
v 2.46478 3.3259 2.17705
v 9.69191 3.3259 1.23961
v 9.69191 3.3259 -1.23961
v 3.63977 2.8276 2.17705
v 2.46478 2.8276 2.17705
v 3.63977 2.8276 -1.23961
v 3.63977 2.8276 1.23961
v 2.46478 2.8276 1.23961
v 2.46478 2.8276 -1.23961
v 9.69191 2.8276 1.23961
v 9.69191 2.8276 -1.23961
v 10.8916 2.8276 -1.23961
v 10.8916 2.8276 1.23961
v 9.69191 3.3259 -2.08659
v 3.63977 3.3259 -2.08659
v 3.63977 0.01967 1.23961
v 9.69191 0.01967 1.23961
v 3.63977 0.01967 -1.23961
v 9.69191 0.01967 -1.23961
v 3.63977 2.8276 -2.08659
v 2.46478 2.8276 -2.08659
v 9.69191 3.3259 2.17705
v 10.8916 3.3259 2.17705
v 10.8916 3.3259 1.23961
v 9.69191 2.8276 -2.08659
v 9.69191 2.8276 2.17705
v 10.8916 2.8276 2.17705
v 2.46478 3.3259 -2.08659
v 10.8916 3.3259 -1.23961
v 10.8916 2.8276 -2.08659
v 10.8916 3.3259 -2.08659
vn -0 1 -0
vn -0.843 0.5379 -0
vn -0 0.5379 0.843
vn -0.6445 0.4113 0.6445
vn -0 -0.5379 0.843
vn -0.6445 -0.4113 0.6445
vn -0.4202 -0.8043 -0.4202
vn -0.4202 -0.8043 0.4202
vn -0.843 -0.5379 -0
vn 0.4202 -0.8043 0.4202
vn 0.4202 -0.8043 -0.4202
vn 0.843 -0.5379 -0
vn -0 0.5379 -0.843
vn 0.6445 -0.4113 0.6445
vn -0.6445 -0.4113 -0.6445
vn 0.6445 -0.4113 -0.6445
vn -0 -0.5379 -0.843
vn 0.6445 0.4113 0.6445
vn 0.843 0.5379 -0
vn -0.6445 0.4113 -0.6445
vn 0.6445 0.4113 -0.6445
vt 0.073575 0.567459
vt 0.267487 0.567459
vt 0.267487 0.659362
vt 0.073575 0.659362
vt 0.000252 0.567459
vt 0.000252 0.659362
vt 0.073575 0.09409
vt 0.267487 0.09409
vt 0.668225 0.567459
vt 0.693094 0.567459
vt 0.693094 0.659362
vt 0.668226 0.659362
vt 0.601474 0.567459
vt 0.407561 0.567459
vt 0.407561 0.659362
vt 0.601474 0.659362
vt 0.334239 0.567459
vt 0.334239 0.659362
vt 0.407561 0.09409
vt 0.601474 0.09409
vt 0.601474 0.000252
vt 0.407561 0.000252
vt 0.333734 0.09409
vt 0.333734 0.567459
vt 0.859108 0.947496
vt 0.718972 0.947496
vt 0.718972 0.474127
vt 0.859108 0.474127
vt 0.718972 0.473622
vt 0.912885 0.473622
vt 0.912885 0.000252
vt 0.718972 0.000252
vt 0.667721 0.567459
vt 0.667721 0.659362
vt 0.938258 0.066499
vt 0.91339 0.066499
vt 0.91339 0.260412
vt 0.938258 0.260412
vt 0.938258 0.333734
vt 0.91339 0.333734
vt 0.000252 0.09409
vt 0.000252 0.000252
vt 0.073575 0.000252
vt 0.693599 0.567459
vt 0.718468 0.567459
vt 0.718467 0.09409
vt 0.693599 0.09409
vt 0.693094 0.09409
vt 0.668225 0.09409
vt 0.668225 0.000252
vt 0.693094 0.000252
vt 0.667721 0.09409
vt 0.859612 0.947496
vt 0.999748 0.947496
vt 0.999748 0.474127
vt 0.859612 0.474127
vt 0.000252 0.659867
vt 0.140388 0.659867
vt 0.000252 0.853779
vt 0.140388 0.853779
vt 0.938258 0.000252
vt 0.91339 0.000252
vt 0.140892 0.659867
vt 0.140892 0.853779
vt 0.281028 0.659867
vt 0.281028 0.853779
vt 0.693599 0.659362
vt 0.718468 0.659362
vt 0.334239 0.09409
vt 0.333734 0.659362
vt 0.938763 0.066499
vt 0.963632 0.066499
vt 0.963632 0.260412
vt 0.938763 0.260412
vt 0.963632 0.333734
vt 0.938763 0.333734
vt 0.938763 0.000252
vt 0.963632 0.000252
vt 0.267487 0.000252
vt 0.333734 0.000252
vt 0.667721 0.000252
vt 0.718467 0.000252
vt 0.693599 0.000252
vt 0.334239 0.000252
usemtl 
f 1/1/1 2/2/1 3/3/2
f 1/1/1 3/3/2 4/4/2
f 5/5/3 1/1/1 4/4/2
f 5/5/3 4/4/2 6/6/4
f 2/2/1 1/1/1 7/7/1
f 2/2/1 7/7/1 8/8/1
f 9/9/5 5/10/3 6/11/4
f 9/9/5 6/11/4 10/12/6
f 11/13/7 12/14/8 13/15/9
f 11/13/7 13/15/9 14/16/9
f 12/14/8 9/17/5 10/18/6
f 12/14/8 10/18/6 13/15/9
f 15/19/10 16/20/11 17/21/12
f 15/19/10 17/21/12 18/22/12
f 2/2/1 8/8/1 19/23/13
f 2/2/1 19/23/13 20/24/13
f 12/25/8 21/26/6 22/27/14
f 12/25/8 22/27/14 15/28/10
f 21/29/6 23/30/15 24/31/16
f 21/29/6 24/31/16 22/32/14
f 25/33/17 11/13/7 14/16/9
f 25/33/17 14/16/9 26/34/15
f 3/35/2 14/36/9 13/37/9
f 3/35/2 13/37/9 4/38/2
f 6/39/4 4/38/2 13/37/9
f 6/39/4 13/37/9 10/40/6
f 7/7/1 27/41/3 28/42/18
f 7/7/1 28/42/18 29/43/19
f 25/44/17 20/45/13 19/46/13
f 25/44/17 19/46/13 30/47/17
f 27/48/3 31/49/5 32/50/14
f 27/48/3 32/50/14 28/51/18
f 16/20/11 11/13/7 25/33/17
f 16/20/11 25/33/17 30/52/17
f 23/53/15 11/54/7 16/55/11
f 23/53/15 16/55/11 24/56/16
f 24/57/16 16/58/11 22/59/14
f 16/58/11 15/60/10 22/59/14
f 14/36/9 3/35/2 33/61/20
f 14/36/9 33/61/20 26/62/15
f 23/63/15 21/64/6 11/65/7
f 21/64/6 12/66/8 11/65/7
f 20/45/13 25/44/17 26/67/15
f 20/45/13 26/67/15 33/68/20
f 5/10/3 9/9/5 31/49/5
f 5/10/3 31/49/5 27/48/3
f 12/14/8 15/19/10 31/69/5
f 12/14/8 31/69/5 9/17/5
f 7/7/1 1/1/1 5/5/3
f 7/7/1 5/5/3 27/41/3
f 2/2/1 20/24/13 33/70/20
f 2/2/1 33/70/20 3/3/2
f 17/71/12 34/72/19 29/73/19
f 17/71/12 29/73/19 18/74/12
f 18/74/12 29/73/19 28/75/18
f 18/74/12 28/75/18 32/76/14
f 34/72/19 17/71/12 35/77/16
f 34/72/19 35/77/16 36/78/21
f 19/23/13 8/8/1 34/79/19
f 19/23/13 34/79/19 36/80/21
f 8/8/1 7/7/1 29/43/19
f 8/8/1 29/43/19 34/79/19
f 16/20/11 30/52/17 35/81/16
f 16/20/11 35/81/16 17/21/12
f 30/47/17 19/46/13 36/82/21
f 30/47/17 36/82/21 35/83/16
f 31/69/5 15/19/10 18/22/12
f 31/69/5 18/22/12 32/84/14
s off
