# Apple ModelIO OBJ File: headset
mtllib headset.mtl
g VRHeadset
v 0.301547 -0.234387 -1.10373
v 0.580084 -0.234387 -1.10373
v 0.632332 -1 -1.1962
v 0.42359 -1 -1.1962
v 0.423591 -1 0.967276
v 0.632332 -1 0.967276
v 0.632332 -1 1.19679
v 0.423591 -1 1.19679
v 0.580084 -0.234387 1.10373
v 0.301547 -0.234387 1.10373
v -0.67796 -0.234387 0.892007
v -0.731447 -1 0.967277
v -0.731447 -1 1.19679
v -0.67796 -0.234387 1.10373
v 0.580084 -0.234387 0.892007
v 0.580084 -0.234387 -0.880481
v 0.632332 -1 -0.954185
v -0.677961 -0.234387 -1.10373
v -0.731448 -1 -1.1962
v -0.731448 -1 -0.954185
v -0.677961 -0.234387 -0.880481
v 0.42359 -1 -0.954185
v 0.388242 -0.234387 0.892007
v 0.388242 -0.234387 -0.880481
v -0.435596 -0.234387 -1.10373
v -0.522289 -0.234387 -0.880481
v -0.435596 0.733287 -0.536823
v 0.301547 0.733287 -0.536823
v 0.301547 0.729267 0.636436
v -0.435596 0.729267 0.636436
v -0.435596 0.300054 -0.880481
v -0.435596 0.300054 -1.10373
v -0.435596 0.865359 0.798623
v -0.435596 0.861336 -0.719696
v -0.435596 -0.234387 1.10373
v -0.522289 -0.234387 0.892007
v -0.435596 0.300054 1.10373
v 0.301547 0.300054 1.10373
v 0.301547 0.865359 0.798623
v 0.301547 0.300054 -0.880481
v -0.548689 -1 -0.954185
v -0.548688 -1 0.967277
v -0.548689 -1 -1.1962
v -0.548688 -1 1.19679
v -0.435596 0.300054 0.892007
v 0.301547 0.861336 -0.719696
v 0.301547 0.300054 -1.10373
v 0.301547 0.300054 0.892007
vn 0.2245 0.3267 -0.9181
vn 0.4707 0.666 -0.5787
vn 0.5925 0.1363 -0.7939
vn -0 0.1199 -0.9928
vn -0 -1 -0
vn -0 0.1207 0.9927
vn 0.5923 0.1369 0.794
vn 0.4708 0.6662 0.5784
vn 0.2239 0.324 0.9192
vn -0.5925 0.8056 -0
vn -0.9976 0.0697 -0
vn -0.5925 0.1379 0.7937
vn -0.4704 0.6665 0.5784
vn 0.9977 0.0681 -0
vn 0.593 0.8052 -0
vn -0.4703 0.6663 -0.5786
vn -0.5927 0.1373 -0.7936
vn 0.299 0.9034 -0.3072
vn 0.3004 0.9017 0.3109
vn -0.2245 0.3267 -0.9181
vn -0.3004 0.9017 0.3109
vn -0.7434 -0.6028 0.29
vn 0.7434 -0.6028 0.29
vn 0.7642 -0.5602 -0.3197
vn -0.7642 -0.5602 -0.3197
vn -0.7206 -0.215 0.6591
vn -0.5156 0.2593 -0.8167
vn -0.5109 0.7388 0.4395
vn -0.5189 0.7556 -0.3998
vn -0.2239 0.324 0.9192
vn -0.299 0.9034 -0.3072
vn -0.5244 0.2171 0.8233
vn 0.5244 0.2171 0.8233
vn 0.5109 0.7388 0.4395
vn 0.7206 -0.215 0.6591
vn -0.7011 -0.1744 -0.6914
vn 0.5189 0.7556 -0.3998
vn 0.5155 0.2593 -0.8167
vn -0 1 -0
vn 0.7011 -0.1744 -0.6914
vt 0.848588 0.586901
vt 0.825155 0.586901
vt 0.820759 0.669852
vt 0.83832 0.669852
vt 0.399195 0.445118
vt 0.433848 0.445118
vt 0.433848 0.48322
vt 0.399195 0.48322
vt 0.543388 0.929886
vt 0.525827 0.929886
vt 0.530223 0.846935
vt 0.553656 0.846935
vt 0.534722 0.501206
vt 0.617673 0.493051
vt 0.617673 0.468184
vt 0.534722 0.478267
vt 0.700952 0.493051
vt 0.618001 0.501206
vt 0.618001 0.478267
vt 0.700952 0.468184
vt 0.700952 0.727454
vt 0.618001 0.717436
vt 0.618001 0.693248
vt 0.700952 0.701234
vt 0.534722 0.717436
vt 0.617673 0.727454
vt 0.617673 0.701234
vt 0.534722 0.693248
vt 0.399195 0.08596
vt 0.433848 0.08596
vt 0.433848 0.126136
vt 0.399195 0.126136
vt 0.242953 0.595871
vt 0.277515 0.595871
vt 0.277515 0.915191
vt 0.242953 0.915191
vt 0.050874 0.955409
vt 0.050874 0.915191
vt 0.094536 0.955409
vt 0.078918 0.915191
vt 0.882775 0.962128
vt 0.820759 0.962128
vt 0.820759 0.83501
vt 0.882775 0.83501
vt 0.820432 0.683165
vt 0.762527 0.683165
vt 0.762527 0.707353
vt 0.820432 0.707353
vt 0.716024 0.518813
vt 0.701279 0.501241
vt 0.715588 0.645931
vt 0.701715 0.665745
vt 0.050874 0.595871
vt 0.050874 0.557729
vt 0.094536 0.557729
vt 0.078918 0.595871
vt 0.615672 0.78903
vt 0.553656 0.78903
vt 0.553656 0.727782
vt 0.615672 0.727782
vt 0.952411 0.717118
vt 0.890396 0.717118
vt 0.890396 0.670179
vt 0.952411 0.670179
vt 0.237787 0.126136
vt 0.237787 0.445118
vt 0.237787 0.08596
vt 0.625186 0.929886
vt 0.615672 0.846935
vt 0.237787 0.48322
vt 0.910604 0.586901
vt 0.920118 0.669852
vt 0.762527 0.491123
vt 0.762527 0.468184
vt 0.930994 0.586901
vt 0.935494 0.669852
vt 0.207447 0.445118
vt 0.207447 0.48322
vt 0.640562 0.929886
vt 0.636062 0.846935
vt 0.207447 0.08596
vt 0.207447 0.126136
vt 0.820759 0.834683
vt 0.882775 0.834683
vt 0.882775 0.670179
vt 0.820759 0.670179
vt 0.848588 0.528997
vt 0.910604 0.528997
vt 0.910604 0.468184
vt 0.848588 0.468184
vt 0.959705 0.775023
vt 0.883102 0.775023
vt 0.890396 0.821854
vt 0.952411 0.821854
vt 0.952411 0.77535
vt 0.890396 0.77535
vt 0.820432 0.491123
vt 0.820432 0.468184
vt 0.883102 0.879758
vt 0.959705 0.879758
vt 0.762527 0.946849
vt 0.762527 0.922661
vt 0.820432 0.922661
vt 0.820432 0.946849
vt 0.701715 0.905241
vt 0.715588 0.885427
vt 0.701279 0.740737
vt 0.716024 0.758309
vt 0.762527 0.70768
vt 0.762527 0.730619
vt 0.820432 0.70768
vt 0.820432 0.730619
vt 0.227335 0.557729
vt 0.277515 0.557729
vt 0.277515 0.955409
vt 0.227335 0.955409
usemtl 
f 1/1/1 2/2/2 3/3/3
f 1/1/1 3/3/3 4/4/4
f 5/5/5 6/6/5 7/7/5
f 5/5/5 7/7/5 8/8/5
f 8/9/6 7/10/7 9/11/8
f 8/9/6 9/11/8 10/12/9
f 11/13/10 12/14/11 13/15/12
f 11/13/10 13/15/12 14/16/13
f 6/17/14 15/18/15 9/19/8
f 6/17/14 9/19/8 7/20/7
f 3/21/3 2/22/2 16/23/15
f 3/21/3 16/23/15 17/24/14
f 18/25/16 19/26/17 20/27/11
f 18/25/16 20/27/11 21/28/10
f 4/29/5 3/30/5 17/31/5
f 4/29/5 17/31/5 22/32/5
f 23/33/18 15/34/15 16/35/15
f 23/33/18 16/35/15 24/36/19
f 17/24/14 16/23/15 15/18/15
f 17/24/14 15/18/15 6/17/14
f 21/28/10 20/27/11 12/14/11
f 21/28/10 12/14/11 11/13/10
f 22/32/5 17/31/5 6/6/5
f 22/32/5 6/6/5 5/5/5
f 18/37/16 21/38/10 25/39/20
f 21/38/10 26/40/21 25/39/20
f 27/41/22 28/42/23 29/43/24
f 27/41/22 29/43/24 30/44/25
f 26/45/21 31/46/26 32/47/27
f 26/45/21 32/47/27 25/48/20
f 30/49/25 33/50/28 27/51/22
f 33/50/28 34/52/29 27/51/22
f 11/53/10 14/54/13 35/55/30
f 11/53/10 35/55/30 36/56/31
f 37/57/32 38/58/33 39/59/34
f 37/57/32 39/59/34 33/60/28
f 31/61/26 40/62/35 28/63/23
f 31/61/26 28/63/23 27/64/22
f 41/65/5 22/32/5 5/5/5
f 41/65/5 5/5/5 42/66/5
f 43/67/5 4/29/5 22/32/5
f 43/67/5 22/32/5 41/65/5
f 44/68/6 8/9/6 10/12/9
f 44/68/6 10/12/9 35/69/30
f 42/66/5 5/5/5 8/8/5
f 42/66/5 8/8/5 44/70/5
f 25/71/20 1/1/1 4/4/4
f 25/71/20 4/4/4 43/72/4
f 35/69/30 10/12/9 38/58/33
f 35/69/30 38/58/33 37/57/32
f 30/49/25 45/73/36 33/50/28
f 45/73/36 37/74/32 33/50/28
f 18/75/16 25/71/20 43/72/4
f 18/75/16 43/72/4 19/76/17
f 12/77/5 42/66/5 44/70/5
f 12/77/5 44/70/5 13/78/5
f 13/79/12 44/68/6 35/69/30
f 13/79/12 35/69/30 14/80/13
f 19/81/5 43/67/5 41/65/5
f 19/81/5 41/65/5 20/82/5
f 20/82/5 41/65/5 42/66/5
f 20/82/5 42/66/5 12/77/5
f 27/51/22 34/52/29 31/46/26
f 34/52/29 32/47/27 31/46/26
f 46/83/37 34/84/29 33/85/28
f 46/83/37 33/85/28 39/86/34
f 47/87/38 32/88/27 34/89/29
f 47/87/38 34/89/29 46/90/37
f 1/1/1 25/71/20 32/88/27
f 1/1/1 32/88/27 47/87/38
f 26/91/21 24/92/19 40/62/35
f 26/91/21 40/62/35 31/61/26
f 36/56/39 23/33/39 24/36/39
f 36/56/39 24/36/39 26/40/39
f 11/53/10 36/56/31 26/40/21
f 11/53/10 26/40/21 21/38/10
f 48/93/40 45/94/36 30/95/25
f 48/93/40 30/95/25 29/96/24
f 45/73/36 36/97/31 37/74/32
f 36/97/31 35/98/30 37/74/32
f 23/99/18 36/100/31 45/94/36
f 23/99/18 45/94/36 48/93/40
f 47/101/38 40/102/35 24/103/19
f 47/101/38 24/103/19 1/104/1
f 46/105/37 28/106/23 40/102/35
f 46/105/37 40/102/35 47/101/38
f 39/107/34 29/108/24 28/106/23
f 39/107/34 28/106/23 46/105/37
f 39/107/34 38/109/33 48/110/40
f 39/107/34 48/110/40 29/108/24
f 38/109/33 10/111/9 23/112/18
f 38/109/33 23/112/18 48/110/40
f 10/113/9 9/114/8 15/34/15
f 10/113/9 15/34/15 23/33/18
f 16/35/15 2/115/2 1/116/1
f 16/35/15 1/116/1 24/36/19
s off
